# AST/ASF file generated using VICON BodyLanguage
# -----------------------------------------------
:version 1.10
:name VICON
:units
  mass 1.0
  length 0.45
  angle deg
:documentation
   .ast/.asf automatically generated from VICON data using
   VICON BodyBuilder and BodyLanguage model FoxedUp or BRILLIANT.MOD
:root
   order TX TY TZ RX RY RZ
   axis XYZ
   position 0 0 0  
   orientation 0 0 0 
:bonedata
  begin
     id 1 
     name lhipjoint
     direction 0.700308 -0.549349 0.455834 
     length 2.59063 
     axis 0 0 0  XYZ
  end
  begin
     id 2 
     name lfemur
     direction 0.34202 -0.939693 0  
     length 6.31066  
     axis 0 0 20  XYZ
    dof rx ry rz
    limits (-160.0 20.0)
           (-70.0 70.0)
           (-60.0 70.0)
  end
  begin
     id 3 
     name ltibia
     direction 0.34202 -0.939693 0   
     length 7.36093   
     axis 0 0 20   XYZ
    dof rx
    limits (-10.0 170.0)
  end
  begin
     id 4 
     name lfoot
     direction 0.0905332 -0.248738 0.96433   
     length 2.0233   
     axis -90 7.62852e-016 20   XYZ
    dof rx rz
    limits (-45.0 90.0)
           (-70.0 20.0)
  end
  begin
     id 5 
     name ltoes
     direction 1.53573e-011 -4.21855e-011 1   
     length 1.01524   
     axis -90 7.62852e-016 20   XYZ
    dof rx
    limits (-90.0 20.0)
  end
  begin
     id 6 
     name rhipjoint
     direction -0.61416 -0.607328 0.503944   
     length 2.34332  
     axis 0 0 0  XYZ 
  end
  begin
     id 7 
     name rfemur
     direction -0.34202 -0.939693 0   
     length 6.58548   
     axis 0 0 -20   XYZ
    dof rx ry rz
    limits (-160.0 20.0)
           (-70.0 70.0)
           (-70.0 60.0)
  end
  begin
     id 8 
     name rtibia
     direction -0.34202 -0.939693 0   
     length 7.20707   
     axis 0 0 -20   XYZ
    dof rx
    limits (-10.0 170.0)
 end
 begin
     id 9 
     name rfoot
     direction -0.136772 -0.375778 0.916561   
     length 1.92184  
     axis -90 -7.62852e-016 -20   XYZ
    dof rx rz
    limits (-45.0 90.0)
           (-20.0 70.0)
  end
  begin
     id 10 
     name rtoes
     direction -1.53535e-011 -4.21828e-011 1   
     length 0.951089   
     axis -90 -7.62852e-016 -20   XYZ
    dof rx
    limits (-90.0 20.0)
  end
  begin
     id 11 
     name lowerback
     direction -0.0444974 0.988086 -0.147332   
     length 1.9609   
     axis 0 0 0   XYZ
    dof rx ry rz
    limits (-20.0 45.0)
           (-30.0 30.0)
           (-30.0 30.0)
  end
  begin
     id 12 
     name upperback
     direction 0.00613146 0.999513 0.0306081   
     length 1.94944   
     axis 0 0 0   XYZ
    dof rx ry rz
    limits (-20.0 45.0)
           (-30.0 30.0)
           (-30.0 30.0)
  end
  begin
     id 13 
     name thorax
     direction 0.0254621 0.994518 0.101418   
     length 2.0119   
     axis 0 0 0   XYZ
    dof rx ry rz
    limits (-20.0 45.0)
           (-30.0 30.0)
           (-30.0 30.0)
  end
  begin
     id 14 
     name lowerneck
     direction 0.0168698 0.977854 0.208608   
     length 1.6375   
     axis 0 0 0   XYZ
    dof rx ry rz
    limits (-20.0 45.0)
           (-30.0 30.0)
           (-30.0 30.0)
  end
  begin
     id 15 
     name upperneck
     direction -0.0283988 0.989338 -0.142843   
     length 1.6851   
     axis 0 0 0   XYZ
    dof rx ry rz
    limits (-20.0 45.0)
           (-30.0 30.0)
           (-30.0 30.0)
  end
  begin
     id 16
     name head
     direction -0.0129422 0.99741 -0.0707489  
     length 1.69029  
     axis 0 0 0   XYZ
    dof rx ry rz
    limits (-20.0 45.0)
           (-30.0 30.0)
           (-30.0 30.0)
  end
  begin
     id 17 
     name lclavicle
     direction 0.820295 0.564628 -0.0911715  
     length 3.16484  
     axis 0 0 0   XYZ
    dof ry rz
    limits (-20.0 10.0)
           (0.0 20.0)
  end
  begin
     id 18 
     name lhumerus
     direction 1 -4.48969e-011 1.00186e-027   
     length 5.17853   
     axis 180 -30 -90   XYZ
    dof rx ry rz
    limits (-60.0 90.0)
           (-90.0 90.0)
           (-90.0 90.0)
  end
  begin
     id 19
     name lradius
     direction 1 -4.48966e-011 -1.52922e-027   
     length 3.40399   
     axis 180 -30 -90   XYZ
    dof rx
    limits (-10.0 170.0)
  end
  begin
     id 20
     name lwrist
     direction 1 -4.48981e-011 -3.80893e-027   
     length 1.70199   
     axis 1.1049e-015 90 90   XYZ
    dof ry
    limits (-180.0 0.0)
 end
  begin
     id 21 
     name lhand
     direction 1 -4.48957e-011 -7.61786e-027   
     length 0.708964   
     axis 4.86085e-015 90 90   XYZ
    dof rx rz
    limits (-90.0 90.0)
           (-45.0 45.0)
  end
  begin
     id 22 
     name lfingers
     direction 1 -4.48929e-011 -1.52357e-026   
     length 0.571585   
     axis 9.7217e-015 90 90   XYZ
    dof rx
    limits (0.0 90.0)
  end
  begin
     id 23
     name lthumb
     direction 0.707107 -6.34905e-011 0.707107   
     length 0.820685   
     axis -90 45 2.85299e-015   XYZ
    dof rx rz
    limits (-45.0 45.0)
           (-45.0 45.0)
  end
  begin
     id 24 
     name rclavicle
     direction -0.858602 0.463947 -0.218075   
     length 3.35137  
     axis 0 0 0   XYZ 
    dof ry rz
    limits (-10.0 20.0)
           (-20.0 0.0)
  end
  begin
     id 25 
     name rhumerus
     direction -1 -4.48969e-011 -1.98511e-027  
     length 5.42351   
     axis 180 30 90   XYZ
    dof rx ry rz
    limits (-90.0 60.0)
           (-90.0 90.0)
           (-90.0 90.0)
  end
  begin
     id 26 
     name rradius
     direction -1 -4.48961e-011 -2.82624e-027   
     length 3.42066   
     axis 180 30 90   XYZ
    dof rx
    limits (-10.0 170.0)
  end
  begin
     id 27 
     name rwrist
     direction -1 -4.48966e-011 -3.80893e-027   
     length 1.71033   
     axis 1.1049e-015 -90 -90   XYZ
    dof ry
    limits (-180.0 0.0)
  end
  begin
     id 28
     name rhand
     direction -1 -4.48964e-011 -7.61786e-027   
     length 0.743608   
     axis 4.86085e-015 -90 -90   XYZ
    dof rx rz
    limits (-90.0 90.0)
           (-45.0 45.0)
  end
  begin
     id 29
     name rfingers
     direction -1 -4.48961e-011 -1.52357e-026   
     length 0.599516   
     axis 9.7217e-015 -90 -90   XYZ
    dof rx
    limits (0.0 90.0)
  end
  begin
     id 30
     name rthumb
     direction -0.707107 -6.34913e-011 0.707107   
     length 0.860789   
     axis -90 -45 -2.85299e-015   XYZ
    dof rx rz
    limits (-45.0 45.0)
           (-45.0 45.0)
  end
:hierarchy
  begin
    root lhipjoint rhipjoint lowerback
    lhipjoint lfemur
    lfemur ltibia
    ltibia lfoot
    lfoot ltoes
    rhipjoint rfemur
    rfemur rtibia
    rtibia rfoot
    rfoot rtoes
    lowerback upperback
    upperback thorax
    thorax lowerneck lclavicle rclavicle
    lowerneck upperneck
    upperneck head
    lclavicle lhumerus
    lhumerus lradius
    lradius lwrist
    lwrist lhand lthumb
    lhand lfingers
    rclavicle rhumerus
    rhumerus rradius
    rradius rwrist
    rwrist rhand rthumb
    rhand rfingers
  end

#!OML:ASF E:\mmandel\Project 1\Capture day 1\Session 2\Subject.ASF
:FULLY-SPECIFIED
:DEGREES
260
root 20.7597 4.8779 0.296941 177.491 83.1924 112.226
lowerback 18.5702 0.772768 -4.57
upperback -0.337512 0.159637 0.839024
thorax -10.857 0.3751 3.48412
lowerneck -16.5127 -0.218752 -1.9198
upperneck -13.3283 0.753076 -1.98805
head -1.52799 0.895947 -0.296018
rclavicle 2.70347e-014 -3.18055e-015
rhumerus -29.3455 12.6726 -61.8324
rradius 93.3583
rwrist -10.8313
rhand -39.6511 64.9169
rfingers 7.12502
rthumb -12.6314 35.3188
lclavicle 2.70347e-014 -3.18055e-015
lhumerus -12.5984 -34.0144 55.9782
lradius 84.211
lwrist 11.6702
lhand -40.3922 274.421
lfingers 7.12502
lthumb -13.3458 -56.0264
rfemur 9.27989 -8.9474 19.6795
rtibia 34.7352
rfoot -27.6175 -20.4856
rtoes -4.186
lfemur -39.8582 59.9182 14.5673
ltibia 98.864
lfoot -2.43351 2.91179
ltoes 7.15607
261
root 20.7159 4.95431 0.298573 177.127 83.3252 112.003
lowerback 18.8823 0.789268 -4.73713
upperback -0.264442 0.140526 0.897822
thorax -10.9515 0.380097 3.65208
lowerneck -16.4142 -0.0625808 -1.67601
upperneck -13.5791 0.903284 -2.40414
head -1.62221 0.974629 -0.464845
rclavicle -1.19271e-014 -9.34288e-015
rhumerus -28.1914 12.8141 -61.5875
rradius 92.8963
rwrist -10.9756
rhand -39.6461 64.4788
rfingers 7.12502
rthumb -12.6267 34.8804
lclavicle -1.19271e-014 -9.34288e-015
lhumerus -11.606 -33.9438 55.4985
lradius 83.5505
lwrist 11.9226
lhand -40.5952 274.462
lfingers 7.12502
lthumb -13.5415 -55.9984
rfemur 8.59779 -8.83916 19.6473
rtibia 35.716
rfoot -27.9251 -20.3024
rtoes -3.71888
lfemur -40.1893 59.6307 14.1381
ltibia 98.9086
lfoot -2.5629 2.77279
ltoes 8.26454
262
root 20.6767 5.02864 0.302814 176.859 83.5533 111.757
lowerback 19.0783 0.846512 -4.95686
upperback -0.15028 0.17309 0.9871
thorax -10.9392 0.409608 3.86866
lowerneck -16.9866 -0.101935 -1.82312
upperneck -13.4648 0.919171 -2.25489
head -1.50068 0.991428 -0.389695
rclavicle -5.32743e-014 -3.33958e-014
rhumerus -26.7799 12.9019 -61.3246
rradius 92.2085
rwrist -11.0017
rhand -39.7534 64.2313
rfingers 7.12502
rthumb -12.7301 34.6393
lclavicle -5.32743e-014 -3.33958e-014
lhumerus -10.4145 -33.683 55.1238
lradius 82.8173
lwrist 12.1102
lhand -40.6902 274.617
lfingers 7.12502
lthumb -13.633 -55.8494
rfemur 7.77813 -8.64867 19.6633
rtibia 36.6844
rfoot -28.2984 -20.2933
rtoes -4.61951
lfemur -40.5717 59.4902 13.6715
ltibia 98.8998
lfoot -2.87088 2.66231
ltoes 7.13964
263
root 20.6319 5.1055 0.309452 175.29 83.7911 110.267
lowerback 19.385 0.936342 -5.22637
upperback 0.180761 0.233245 1
thorax -10.7475 0.444476 4.02015
lowerneck -18.5807 -0.218623 -2.27757
upperneck -13.0666 0.978872 -1.75007
head -1.14071 1.04962 -0.144493
rclavicle -5.00937e-014 -5.58585e-014
rhumerus -24.9279 12.6533 -61.023
rradius 91.4162
rwrist -10.951
rhand -39.6925 63.7432
rfingers 7.12502
rthumb -12.6713 34.1476
lclavicle -5.00937e-014 -5.58585e-014
lhumerus -8.72378 -33.2489 54.4814
lradius 82.0403
lwrist 12.3856
lhand -40.6122 274.737
lfingers 7.12502
lthumb -13.5579 -55.7242
rfemur 6.99052 -8.50061 19.5117
rtibia 37.6569
rfoot -28.5658 -20.3598
rtoes -5.67914
lfemur -40.8642 59.2965 13.0966
ltibia 98.8416
lfoot -3.29914 2.62253
ltoes 5.33049
264
root 20.5822 5.18329 0.313621 173.627 83.982 108.646
lowerback 19.5314 1.04422 -5.3983
upperback 0.0333333 0.305485 0.863569
thorax -11.0055 0.492381 3.94863
lowerneck -17.546 -0.210756 -2.20675
upperneck -13.3055 0.895849 -1.89658
head -1.36935 0.998355 -0.211511
rclavicle -2.94201e-014 -7.21588e-014
rhumerus -24.4197 12.6325 -61.0365
rradius 90.9046
rwrist -11.05
rhand -39.5041 63.1965
rfingers 7.12502
rthumb -12.4898 33.5897
lclavicle -2.94201e-014 -7.21588e-014
lhumerus -7.97334 -33.77 53.9553
lradius 81.4422
lwrist 12.7967
lhand -40.573 274.696
lfingers 7.12502
lthumb -13.5201 -55.7626
rfemur 6.19806 -8.4249 19.326
rtibia 38.6297
rfoot -28.9476 -20.1419
rtoes -5.98994
lfemur -41.3022 59.0674 12.3921
ltibia 98.8156
lfoot -3.56947 2.57367
ltoes 5.76133
265
root 20.5272 5.25772 0.317771 173.882 84.3285 108.857
lowerback 19.6222 1.11296 -5.59144
upperback 0.303244 0.369795 0.943477
thorax -10.7612 0.525171 4.12867
lowerneck -18.952 -0.316821 -2.29908
upperneck -12.9064 0.878168 -1.57406
head -1.03458 0.997115 -0.0871591
rclavicle -6.36111e-015 3.93594e-014
rhumerus -22.6497 12.566 -60.7102
rradius 90.2232
rwrist -11.2856
rhand -39.3819 62.8234
rfingers 7.12502
rthumb -12.3719 33.2095
lclavicle -6.36111e-015 3.93594e-014
lhumerus -6.38127 -33.3328 53.0457
lradius 80.7121
lwrist 13.2354
lhand -40.5297 274.731
lfingers 7.12502
lthumb -13.4783 -55.7247
rfemur 5.31884 -8.25066 19.3839
rtibia 39.5901
rfoot -29.515 -19.8478
rtoes -6.74219
lfemur -41.6838 59.1478 12.1194
ltibia 98.8703
lfoot -4.59563 2.61798
ltoes 3.3272
266
root 20.4691 5.33165 0.321396 174.842 84.6452 109.895
lowerback 20.0596 1.30624 -5.72627
upperback -0.126597 0.553306 1.01606
thorax -11.5206 0.650247 4.23892
lowerneck -16.7148 -0.166949 -2.05218
upperneck -13.9382 0.879075 -2.07189
head -1.69942 1.0006 -0.301416
rclavicle 0 3.10104e-014
rhumerus -22.6354 12.8176 -60.6368
rradius 89.8384
rwrist -11.4358
rhand -39.2742 62.407
rfingers 7.12502
rthumb -12.268 32.7869
lclavicle 0 3.10104e-014
lhumerus -6.19219 -34.0085 53.0636
lradius 80.2028
lwrist 13.6334
lhand -40.3376 274.813
lfingers 7.12502
lthumb -13.2932 -55.6307
rfemur 4.56944 -8.10421 19.5009
rtibia 40.5112
rfoot -30.1951 -19.7427
rtoes -9.13775
lfemur -41.8756 59.1659 12.0851
ltibia 98.9307
lfoot -5.09078 2.53778
ltoes 3.53332
267
root 20.4162 5.40423 0.322524 175.039 84.8803 110.207
lowerback 20.1768 1.35185 -5.75822
upperback -0.122906 0.59736 1.00275
thorax -11.5884 0.674255 4.22966
lowerneck -16.0005 -0.114809 -1.85716
upperneck -14.4008 0.867575 -2.29778
head -1.95931 0.998682 -0.412919
rclavicle -1.03368e-014 -1.41137e-014
rhumerus -21.7455 12.8154 -60.612
rradius 89.2844
rwrist -11.522
rhand -39.1673 62.0273
rfingers 7.12502
rthumb -12.165 32.401
lclavicle -1.03368e-014 -1.41137e-014
lhumerus -5.38004 -34.1678 52.603
lradius 79.5848
lwrist 13.9333
lhand -40.2857 274.967
lfingers 7.12502
lthumb -13.2432 -55.4738
rfemur 3.87684 -7.95202 19.5308
rtibia 41.4229
rfoot -30.9661 -19.8305
rtoes -11.9608
lfemur -42.0795 59.0559 11.8802
ltibia 98.9553
lfoot -5.65152 2.44222
ltoes 2.10139
268
root 20.37 5.47593 0.322601 175.313 85.0838 110.512
lowerback 20.3859 1.34921 -5.76906
upperback -0.116849 0.577684 0.987035
thorax -11.6976 0.668927 4.2249
lowerneck -16.4726 -0.178486 -1.70052
upperneck -13.901 0.766424 -2.27147
head -1.72121 0.91909 -0.426305
rclavicle -3.18055e-014 -7.73272e-014
rhumerus -20.6725 12.9094 -60.5238
rradius 88.6645
rwrist -11.6654
rhand -39.1394 61.7695
rfingers 7.12502
rthumb -12.1381 32.1417
lclavicle -3.18055e-014 -7.73272e-014
lhumerus -4.43656 -34.1991 51.8858
lradius 78.9761
lwrist 14.3091
lhand -40.2882 275.302
lfingers 7.12502
lthumb -13.2456 -55.139
rfemur 3.09725 -7.83562 19.564
rtibia 42.3409
rfoot -31.945 -20.3943
rtoes -16.579
lfemur -42.4334 58.9772 11.5508
ltibia 98.953
lfoot -6.24387 2.37212
ltoes 0.422812
269
root 20.3259 5.54865 0.327795 173.855 85.4054 109.037
lowerback 20.5184 1.47849 -6.14092
upperback -0.080266 0.657564 1.02963
thorax -11.7472 0.730849 4.4627
lowerneck -16.699 -0.207002 -1.64703
upperneck -13.8297 0.732063 -2.23266
head -1.66381 0.897486 -0.422424
rclavicle -6.67916e-014 -3.39922e-014
rhumerus -19.5676 12.9628 -60.3095
rradius 88.0729
rwrist -11.7856
rhand -39.1653 61.5509
rfingers 7.12502
rthumb -12.1631 31.9245
lclavicle -6.67916e-014 -3.39922e-014
lhumerus -3.39347 -34.0995 51.2563
lradius 78.4219
lwrist 14.9213
lhand -40.0202 275.571
lfingers 7.12502
lthumb -12.9873 -54.8532
rfemur 2.25385 -7.67141 19.4602
rtibia 43.2412
rfoot -30.3771 -19.4833
rtoes -7.91041
lfemur -42.5711 59.016 11.2207
ltibia 98.8605
lfoot -6.7523 2.23498
ltoes 0.623671
270
root 20.2774 5.62589 0.331843 171.58 85.6153 106.883
lowerback 20.9785 1.57934 -6.51926
upperback -0.0669625 0.6739 1.06339
thorax -12.0015 0.771935 4.71512
lowerneck -16.5136 -0.108285 -1.58467
upperneck -14.243 0.848205 -2.42077
head -1.82761 0.973143 -0.493527
rclavicle 0 1.63003e-014
rhumerus -18.478 13.0058 -60.1717
rradius 87.4153
rwrist -11.8172
rhand -39.1255 61.2694
rfingers 7.12502
rthumb -12.1247 31.6407
lclavicle 0 1.63003e-014
lhumerus -2.46136 -33.9731 50.7884
lradius 77.8534
lwrist 15.4798
lhand -39.8516 275.503
lfingers 7.12502
lthumb -12.8247 -54.9108
rfemur 1.54612 -7.51376 19.3015
rtibia 44.1373
rfoot -29.8685 -19.0747
rtoes -5.2428
lfemur -42.6917 58.8865 10.8098
ltibia 98.76
lfoot -7.22324 2.12109
ltoes 0.695707
271
root 20.2308 5.70509 0.3333 171.871 85.6328 107.35
lowerback 21.5064 1.57036 -6.55513
upperback -0.0313474 0.622397 1.07785
thorax -12.2528 0.760672 4.77046
lowerneck -16.3544 -0.111687 -2.08146
upperneck -14.4754 0.955478 -1.95
head -1.9333 1.05833 -0.26225
rclavicle 2.62396e-014 1.39149e-014
rhumerus -17.3706 12.9391 -60.0808
rradius 86.7276
rwrist -11.8603
rhand -38.9988 60.8547
rfingers 7.12502
rthumb -12.0025 31.2189
lclavicle 2.62396e-014 1.39149e-014
lhumerus -1.46592 -33.8682 50.2158
lradius 77.3029
lwrist 15.8278
lhand -39.8762 275.305
lfingers 7.12502
lthumb -12.8484 -55.1105
rfemur 0.914299 -7.43346 19.3584
rtibia 45.0546
rfoot -30.521 -18.9786
rtoes -7.74952
lfemur -43.1303 58.5561 10.3757
ltibia 98.7449
lfoot -7.45929 2.0569
ltoes 0.793308
272
root 20.179 5.78025 0.334282 173.384 85.6436 108.972
lowerback 21.8771 1.53374 -6.55607
upperback 0.121063 0.566963 1.14247
thorax -12.2787 0.737566 4.86309
lowerneck -17.4203 -0.215783 -2.18482
upperneck -13.7522 0.886492 -1.81816
head -1.53505 1.00794 -0.194911
rclavicle 1.90833e-014 3.26007e-014
rhumerus -15.9832 12.8161 -59.8601
rradius 86.0894
rwrist -11.9143
rhand -38.8748 60.3303
rfingers 7.12502
rthumb -11.8829 30.6875
lclavicle 1.90833e-014 3.26007e-014
lhumerus -0.319757 -33.4861 49.6801
lradius 76.6399
lwrist 15.9578
lhand -39.9628 275.271
lfingers 7.12502
lthumb -12.9319 -55.1492
rfemur 0.208339 -7.38297 19.5151
rtibia 45.9808
rfoot -31.2056 -18.8708
rtoes -10.3227
lfemur -43.732 58.2686 9.97352
ltibia 98.8064
lfoot -7.77604 1.94316
ltoes 0.501295
273
root 20.1163 5.85008 0.339043 174.551 85.9324 110.089
lowerback 22.0856 1.57437 -6.75769
upperback 0.408553 0.584941 1.24474
thorax -12.0698 0.750516 5.089
lowerneck -18.9177 -0.248521 -2.23798
upperneck -13.3444 0.956563 -1.7175
head -1.1827 1.05161 -0.142471
rclavicle 7.55382e-014 3.71727e-014
rhumerus -14.1032 12.6407 -59.5638
rradius 85.3587
rwrist -11.9153
rhand -38.8253 59.885
rfingers 7.12502
rthumb -11.8352 30.2395
lclavicle 7.55382e-014 3.71727e-014
lhumerus 1.06463 -32.6877 49.0668
lradius 75.9077
lwrist 16.0282
lhand -40.0574 275.438
lfingers 7.12502
lthumb -13.0231 -54.9887
rfemur -0.730052 -7.10362 19.6999
rtibia 46.9407
rfoot -30.4306 -18.9016
rtoes -6.05334
lfemur -44.2631 58.3869 9.72676
ltibia 98.8989
lfoot -8.36544 1.78424
ltoes -1.93242
274
root 20.0611 5.9231 0.34163 173.579 86.044 109.238
lowerback 22.431 1.69237 -6.92714
upperback 0.179263 0.650946 1.18865
thorax -12.5414 0.811094 5.10564
lowerneck -17.2958 -0.305939 -2.03126
upperneck -14.0499 0.734995 -1.85281
head -1.65104 0.934986 -0.239311
rclavicle -3.49861e-014 -4.75095e-014
rhumerus -13.8228 12.6493 -59.574
rradius 84.7897
rwrist -11.8672
rhand -38.8283 59.7228
rfingers 7.12502
rthumb -11.8381 30.0774
lclavicle -3.49861e-014 -4.75095e-014
lhumerus 1.55394 -33.0478 48.8553
lradius 75.4549
lwrist 16.1975
lhand -40.0701 275.63
lfingers 7.12502
lthumb -13.0354 -54.7977
rfemur -1.4166 -7.06313 19.6145
rtibia 47.8554
rfoot -30.4468 -18.9812
rtoes -6.00058
lfemur -44.5905 58.1938 9.34969
ltibia 98.9096
lfoot -9.03501 1.69282
ltoes -3.0169
